HIERARCHY
ROOT hip
{
	OFFSET 0.000000 0.000000 0.000000 
	CHANNELS 6 Xposition Yposition Zposition Zrotation Xrotation Yrotation
	JOINT abdomen
	{
		OFFSET 0.000000 3.402643 0.000000 
		CHANNELS 3 Zrotation Xrotation Yrotation
		JOINT chest
		{
			OFFSET 0.000000 8.438565 -0.680529 
			CHANNELS 3 Zrotation Xrotation Yrotation
			JOINT neck
			{
				OFFSET 0.000000 10.207942 -0.272212 
				CHANNELS 3 Zrotation Xrotation Yrotation
				JOINT head
				{
					OFFSET 0.000000 3.130431 0.000000 
					CHANNELS 3 Zrotation Xrotation Yrotation
					End Site
					{
						OFFSET 0.000000 3.130435 0.000000 
					}
				}
			}
			JOINT lCollar
			{
				OFFSET 3.470700 6.669187 -0.816635 
				CHANNELS 3 Zrotation Xrotation Yrotation
				JOINT lShldr
				{
					OFFSET 3.198488 0.000000 0.000000 
					CHANNELS 3 Zrotation Xrotation Yrotation
					JOINT lForeArm
					{
						OFFSET 10.139888 0.000000 0.000000 
						CHANNELS 3 Zrotation Xrotation Yrotation
						JOINT lHand
						{
							OFFSET 8.370511 0.000000 0.000000 
							CHANNELS 3 Zrotation Xrotation Yrotation
							End Site
							{
								OFFSET 4.083176 0.000000 0.000000 
							}
						}
					}
				}
			}
			JOINT rCollar
			{
				OFFSET -3.470700 6.669187 -0.816635 
				CHANNELS 3 Zrotation Xrotation Yrotation
				JOINT rShldr
				{
					OFFSET -3.198488 0.000000 0.000000 
					CHANNELS 3 Zrotation Xrotation Yrotation
					JOINT rForeArm
					{
						OFFSET -10.139888 0.000000 0.000000 
						CHANNELS 3 Zrotation Xrotation Yrotation
						JOINT rHand
						{
							OFFSET -8.370511 0.000000 0.000000 
							CHANNELS 3 Zrotation Xrotation Yrotation
							End Site
							{
								OFFSET -4.083176 0.000000 0.000000 
							}
						}
					}
				}
			}
		}
	}
	JOINT lThigh
	{
		OFFSET 5.308129 -1.633274 1.361059 
		CHANNELS 3 Zrotation Xrotation Yrotation
		JOINT lShin
		{
			OFFSET -2.041588 -20.007561 0.000000 
			CHANNELS 3 Zrotation Xrotation Yrotation
			JOINT lFoot
			{
				OFFSET 0.000000 -19.190928 -1.224953 
				CHANNELS 3 Zrotation Xrotation Yrotation
				End Site
				{
					OFFSET 0.000000 -2.449906 4.627600 
				}
			}
		}
	}
	JOINT rThigh
	{
		OFFSET -5.308129 -1.633274 1.361059 
		CHANNELS 3 Zrotation Xrotation Yrotation
		JOINT rShin
		{
			OFFSET 2.041588 -20.007561 0.000000 
			CHANNELS 3 Zrotation Xrotation Yrotation
			JOINT rFoot
			{
				OFFSET 0.000000 -19.190928 -1.224953 
				CHANNELS 3 Zrotation Xrotation Yrotation
				End Site
				{
					OFFSET 0.000000 -2.449906 4.627600 
				}
			}
		}
	}
}
MOTION
Frames: 18
Frame Time: 0.033333
0.000024 48.077129 0.258031 -0.000000 -0.000010 -0.000000 -0.000000 -0.781249 -0.000000 -0.000000 0.429695 -0.000000 -0.000000 0.273433 -0.000000 -0.000000 -4.121094 -0.000000 -5.174845 -0.797779 3.618107 -72.100266 16.114428 7.076243 -9.457427 3.398297 -27.650452 8.686341 -2.451860 -3.454164 5.526911 -0.343312 -2.838291 71.839989 15.798718 -6.587790 10.121505 2.925062 29.501078 -8.254363 -3.539315 2.645784 2.184369 -7.171083 0.523099 -2.075740 13.125336 -0.429762 -0.476047 -6.365880 0.011064 -4.345557 -7.139693 -0.633532 1.654179 13.125790 -0.099020 1.650138 -6.652938 -1.517356 
0.004070 48.165924 0.213616 -0.000000 -0.000010 -0.000000 -0.000000 -1.845703 -0.000000 -0.000000 0.869144 -0.000000 -0.000000 0.527339 -0.000000 -0.000000 -9.238284 -0.000000 -4.691067 -1.472265 5.723758 -71.073448 16.703543 3.222028 -10.771456 3.631136 -37.823040 11.985653 -5.349237 -3.529311 5.558662 -0.447480 -3.887865 70.584190 15.889665 -1.919055 12.635321 3.180026 41.816261 -11.062302 -7.734257 2.088398 2.151116 -6.640539 0.695917 -1.776270 11.868196 -0.684765 -0.770644 -5.662785 0.093376 -4.301236 -6.624061 -0.493207 1.555698 11.845167 -0.283353 1.709958 -5.911865 -1.480858 
0.009972 48.264992 0.164965 -0.000000 -0.000010 -0.000000 -0.000000 -3.017576 -0.000000 -0.000000 1.298826 -0.000000 -0.000000 0.771481 -0.000000 -0.000000 -14.726567 -0.000000 -4.189618 -2.179576 8.038018 -69.909225 17.342047 -0.828691 -12.341181 4.571619 -48.480537 15.495625 -8.397496 -3.593071 5.675060 -0.570141 -5.033741 69.223198 15.876538 3.086601 15.564431 4.909345 54.598721 -14.104480 -12.156612 1.532686 2.070517 -6.027379 0.670442 -1.548817 10.461749 -0.931486 -0.856084 -4.923579 0.239961 -4.247468 -6.041100 -0.599757 1.498625 10.431022 -0.224358 1.703851 -5.055474 -1.384927 
0.013225 48.357800 0.117905 -0.000000 -0.000010 -0.000000 -0.000000 -4.130858 -0.000000 -0.000000 1.796875 -0.000000 -0.000000 1.074217 -0.000000 -0.000000 -20.234375 -0.000000 -3.519252 -2.812217 10.290337 -68.627419 17.756226 -5.096920 -13.893131 6.281603 -59.267796 19.071325 -11.524906 -3.674700 5.643329 -0.679949 -6.151572 67.880234 15.748331 8.119213 18.215202 8.122005 67.227272 -17.343300 -16.722763 0.883494 2.038425 -5.479412 0.627526 -1.551680 9.137185 -0.908354 -0.899330 -4.143271 0.319702 -4.204122 -5.486969 -0.691594 1.383935 9.113386 -0.178057 1.740595 -4.351635 -1.350582 
0.009321 48.427814 0.078255 -0.000000 -0.000010 -0.000000 -0.000000 -5.019529 -0.000000 -0.000000 2.431644 -0.000000 -0.000000 1.503900 -0.000000 -0.000000 -25.390615 -0.000000 -2.558049 -3.230850 12.217375 -67.296127 17.686773 -9.526465 -15.144397 8.770872 -69.878212 22.582466 -14.611019 -3.809960 5.233415 -0.727928 -7.147659 66.623589 15.517358 12.889580 20.007652 12.422063 79.242943 -20.761383 -21.318676 0.071636 1.989137 -5.091796 0.587703 -1.331132 8.137214 -0.825639 -1.066235 -3.486789 0.248247 -4.151956 -5.097507 -0.820301 1.281353 8.164572 -0.008267 1.878591 -3.739275 -1.341853 
-0.006245 48.458492 0.051840 -0.000000 -0.000010 -0.000000 -0.000000 -5.517579 -0.000000 -0.000000 3.271483 -0.000000 -0.000000 2.138669 -0.000000 -0.000000 -29.824219 -0.000000 -1.207697 -3.324208 13.560154 -66.097382 16.901192 -14.066515 -15.849722 11.818635 -80.060959 25.892509 -17.574699 -4.039443 4.198279 -0.652520 -7.898535 65.556915 15.232196 17.092543 20.684288 17.079264 90.388802 -24.364214 -25.844992 -0.992138 2.009743 -4.938601 0.556436 -1.409717 7.755294 -0.877121 -1.070505 -3.264915 0.343254 -4.123192 -4.963274 -0.753865 1.241383 7.767761 -0.074172 1.759232 -3.540138 -1.416208 
-0.037980 48.433308 0.044486 -0.000000 -0.000010 -0.000000 -0.000000 -5.449222 -0.000000 -0.000000 4.384766 -0.000000 -0.000000 3.046872 -0.000000 -0.000000 -33.173828 -0.000000 0.657950 -2.996343 14.033231 -65.278671 15.186415 -18.652594 -15.863271 15.144617 -89.610580 28.853197 -20.313738 -4.404313 2.319026 -0.407330 -8.293934 64.746559 14.951159 20.458258 20.418783 21.282286 100.439110 -28.143238 -30.193874 -2.393921 2.025419 -5.163049 0.578125 -1.339823 8.206731 -0.777883 -1.150539 -3.455067 0.218960 -4.087789 -5.199905 -0.814904 1.272221 8.207223 -0.055164 1.773201 -3.585413 -1.328769 
-0.088095 48.338634 0.060801 -0.000000 -0.000010 -0.000000 -0.000000 -4.707031 -0.000000 -0.000000 5.810549 -0.000000 -0.000000 4.306635 -0.000000 -0.000000 -35.146484 -0.000000 3.027435 -2.288176 13.455821 -65.116196 12.526217 -23.210520 -15.200423 18.435102 -98.402550 31.352808 -22.753946 -4.913168 -0.454366 -0.003179 -8.241934 64.230370 14.726133 22.841244 19.698566 24.470564 109.164215 -32.163631 -34.246632 -4.287074 2.128932 -5.861960 0.662299 -1.426407 9.692343 -0.866637 -1.182774 -4.403720 0.227694 -4.071418 -5.869959 -0.639667 1.406705 9.683756 -0.204595 1.594439 -4.465899 -1.450531 
-0.149628 48.172443 0.100534 -0.000000 -0.000010 -0.000000 -0.000000 -3.398440 -0.000000 -0.000000 7.421881 -0.000000 -0.000000 6.035147 -0.000000 -0.000000 -35.703117 -0.000000 5.347678 -1.489349 11.980612 -65.588226 9.485130 -27.626001 -13.970057 21.489338 -106.464088 33.539463 -24.901581 -5.392983 -3.434286 0.401916 -7.788645 63.858509 14.541125 24.678398 18.949978 26.715439 116.499245 -36.376701 -37.878117 -6.683180 2.298306 -6.918730 0.641135 -1.725660 12.083889 -0.656906 -0.973696 -5.535183 0.123735 -4.069270 -6.958487 -0.736357 1.527963 12.065618 -0.011351 1.518508 -5.786097 -1.526840 
-0.213323 47.935646 0.162223 -0.000000 -0.000010 -0.000000 -0.000000 -1.699221 -0.000000 -0.000000 9.062503 -0.000000 -0.000000 8.349602 -0.000000 -0.000000 -34.843750 -0.000000 6.903010 -0.878231 9.855618 -66.432724 6.692609 -31.804304 -12.322001 24.252701 -113.825096 35.594448 -26.842138 -5.669742 -5.707064 0.638757 -7.035096 63.431480 14.342151 26.553028 18.317413 28.279381 122.443512 -40.706596 -40.973392 -9.598124 2.503690 -8.322351 0.934495 -2.226588 15.220367 -0.877889 -0.507315 -7.168799 0.171969 -4.094914 -8.354557 -1.144294 1.720086 15.205160 0.125983 1.239483 -7.497220 -1.324181 
-0.269923 47.629131 0.244402 -0.000000 -0.000010 -0.000000 -0.000000 0.205079 -0.000000 -0.000000 10.595707 -0.000000 -0.000000 11.367181 -0.000000 -0.000000 -32.597652 -0.000000 6.932845 -0.539143 7.350211 -67.204247 4.666605 -35.594822 -10.403321 26.662823 -120.494461 37.757572 -28.634243 -5.511830 -6.396453 0.618181 -6.094497 62.792248 14.041992 29.021774 17.783283 29.416056 127.005997 -45.051331 -43.391682 -13.045427 2.724581 -9.981674 1.122716 -2.798032 18.939293 -0.803703 -0.157907 -9.267608 0.100242 -4.172763 -9.997641 -1.341982 1.961084 18.937170 0.247289 0.999338 -9.812611 -1.329613 
-0.310170 47.253796 0.345607 -0.000000 -0.000010 -0.000000 -0.000000 2.167974 -0.000000 -0.000000 11.845705 -0.000000 -0.000000 15.214838 -0.000000 -0.000000 -28.974611 -0.000000 4.674070 -0.361844 4.682011 -67.330597 3.824046 -38.803665 -8.363042 28.756779 -126.464081 40.272366 -30.330349 -4.684910 -4.568149 0.337659 -5.071692 61.771244 13.546803 32.666710 17.163923 30.370441 130.270096 -49.160496 -44.994144 -16.889521 2.969775 -11.763225 1.303934 -3.158916 23.048309 -0.878442 0.090675 -11.697392 0.195585 -4.297117 -11.795219 -1.507896 2.176274 23.113440 0.328500 0.863057 -12.008141 -1.403007 
-0.324809 46.810535 0.464374 -0.000000 -0.000010 -0.000000 -0.000000 3.994139 -0.000000 -0.000000 12.656252 -0.000000 -0.000000 19.990231 -0.000000 -0.000000 -24.003906 -0.000000 -0.690517 -0.092777 2.021344 -66.164505 4.507952 -41.248989 -6.331372 30.593485 -131.688370 43.414371 -31.974112 -2.962912 0.677115 -0.116148 -4.023164 60.258121 12.709712 38.023323 16.214991 31.354181 132.310455 -52.711926 -45.696629 -20.922167 3.223615 -13.653121 1.466563 -3.695413 27.488947 -0.640112 0.203749 -14.187716 0.174788 -4.512410 -13.676899 -1.802229 2.765112 27.560205 0.310989 0.352442 -14.623505 -1.309098 
-0.306211 46.315228 0.595508 -0.000000 -0.000010 -0.000000 -0.000000 5.517577 -0.000000 -0.000000 12.919925 -0.000000 -0.000000 25.605463 -0.000000 -0.000000 -17.949223 -0.000000 -9.137457 0.581632 -0.327831 -63.426029 6.757611 -42.907940 -4.446728 32.163769 -136.051224 47.308380 -33.496803 -0.179787 9.416545 -0.573823 -3.034681 58.311230 11.422977 45.173622 14.711911 32.506481 133.364273 -55.308956 -45.474171 -24.880783 3.463754 -15.538870 1.693801 -4.057106 31.908745 -0.528901 0.289130 -16.678562 0.123575 -4.794124 -15.550153 -1.530588 3.187258 31.926762 0.267540 0.189944 -17.022896 -1.832190 
-0.253245 45.843643 0.718886 -0.000000 -0.000010 -0.000000 -0.000000 6.542969 -0.000000 -0.000000 12.636717 -0.000000 -0.000000 30.976561 -0.000000 -0.000000 -12.041016 -0.000000 -17.523851 1.437099 -1.704354 -60.164684 9.500570 -44.086449 -3.084620 33.161198 -138.965347 51.266769 -34.465691 3.351249 18.262859 -0.836975 -2.327643 56.559727 9.943896 52.291142 12.737479 33.546936 133.968582 -56.672081 -44.657364 -28.349880 3.614728 -17.116188 1.838887 -4.458472 35.697487 -0.306273 0.370887 -18.905800 0.052674 -5.089985 -17.160759 -1.690444 3.287415 35.793655 0.247134 0.383167 -19.136242 -1.696173 
-0.166415 45.486542 0.810656 -0.000000 -0.000010 -0.000000 -0.000000 6.875000 -0.000000 -0.000000 11.855464 -0.000000 -0.000000 34.833977 -0.000000 -0.000000 -7.773436 -0.000000 -21.938231 1.548400 -1.612573 -57.816845 11.445779 -45.005562 -2.714567 33.159050 -139.798660 54.196674 -34.364052 7.064857 23.005936 -1.023062 -2.247137 55.554668 8.828321 57.190723 10.414836 34.065166 134.774521 -56.630627 -43.633839 -31.007374 3.628404 -18.233412 1.889804 -4.723333 38.269325 -0.178758 0.449441 -20.544624 0.204777 -5.345624 -18.265923 -2.451347 3.492738 38.453346 0.228819 0.191477 -20.691139 -1.215764 
-0.057410 45.311279 0.852561 -0.000000 -0.000010 -0.000000 -0.000000 6.396482 -0.000000 -0.000000 10.664062 -0.000000 -0.000000 36.269516 -0.000000 -0.000000 -6.250000 -0.000000 -20.009836 0.445881 0.009178 -57.478863 11.736748 -45.686531 -3.406886 32.062157 -138.351379 55.223431 -33.078800 10.297521 21.217733 -1.200398 -2.912979 55.608139 8.572995 58.246323 7.943420 33.822906 136.121902 -55.388474 -42.765068 -32.718769 3.452987 -18.687325 1.848898 -4.708265 39.247269 -0.122624 0.637816 -20.856443 0.210062 -5.504210 -18.692017 -1.807936 3.688714 39.360382 0.153835 0.410323 -21.358215 -1.727408 
0.017293 45.291607 0.848738 -0.000000 -0.000010 -0.000000 -0.000000 5.283206 -0.000000 -0.000000 9.335941 -0.000000 -0.000000 35.996094 -0.000000 -0.000000 -7.001955 -0.000000 -15.681750 -0.614997 1.946212 -58.644188 11.218063 -46.188137 -3.955782 30.954737 -136.325500 55.082237 -31.586493 12.510806 17.640095 -1.289585 -3.833967 56.855797 9.134711 55.831581 5.588289 33.427441 137.511765 -53.825588 -42.165104 -33.628223 3.244284 -18.588779 1.752519 -4.553446 39.000507 -0.355219 0.687010 -20.645124 0.471099 -5.544541 -18.669914 -1.590200 3.427109 39.174191 0.249741 0.782057 -21.130787 -1.787370 
